<svg xmlns="http://www.w3.org/2000/svg" width="35" height="23" viewBox="0 0 35 23">
  <defs>
    <style>
      .cls-1 {
        fill: #6c8fb1;
        fill-rule: evenodd;
      }
    </style>
  </defs>
  <path id="椭圆_15" data-name="椭圆 15" class="cls-1" d="M17.5,23.993C6.769,23.993,0,13,0,13S6.769,1,17.5,1,35,13,35,13,28.237,23.993,17.5,23.993Zm0-20C8.6,3.991,3,13,3,13s5.6,7.993,14.5,7.993S32,13,32,13,26.4,3.991,17.5,3.991Zm-0.337,14.29a5.534,5.534,0,0,1-5.506-6.57A3.268,3.268,0,1,0,16.2,7.174,5.6,5.6,0,1,1,17.167,18.282Z" transform="translate(0 -1)"/>
</svg>
