<svg id="组_1" data-name="组 1" xmlns="http://www.w3.org/2000/svg" width="35" height="23.156" viewBox="0 0 35 23.156">
  <defs>
    <style>
      .cls-1 {
        fill: #6c8fb1;
        fill-rule: evenodd;
      }
    </style>
  </defs>
  <path id="椭圆_15_拷贝" data-name="椭圆 15 拷贝" class="cls-1" d="M29.166,19.444l-1.86-1.86a22.145,22.145,0,0,0,4.7-4.592s-5.6-9-14.5-9a13.315,13.315,0,0,0-3.352.439l-2.3-2.3A15.016,15.016,0,0,1,17.5,1C28.237,1,34.995,13,34.995,13A28.845,28.845,0,0,1,29.166,19.444ZM11.823,13.987l3.744,3.744A5.577,5.577,0,0,1,11.823,13.987Zm5.343-7.2a5.6,5.6,0,0,1,5.6,5.6,5.516,5.516,0,0,1-.06.6L16.567,6.845A5.5,5.5,0,0,1,17.167,6.785ZM4.786,6.95L6.613,8.776A23.566,23.566,0,0,0,3,12.991s5.6,8,14.5,8c0.429,0,.842-0.034,1.255-0.069l2.593,2.593a15.879,15.879,0,0,1-3.85.477C6.769,23.993.011,13,.011,13A30.71,30.71,0,0,1,4.786,6.95Z" transform="translate(0 -0.844)"/>
  <path id="矩形_1" data-name="矩形 1" class="cls-1" d="M8.5,1.344L28.016,20.862A1.8,1.8,0,0,1,25.474,23.4L5.957,3.886A1.8,1.8,0,0,1,8.5,1.344Z" transform="translate(0 -0.844)"/>
</svg>
