<?xml version="1.0" encoding="utf-8"?>
<!-- Generator: Adobe Illustrator 24.1.2, SVG Export Plug-In . SVG Version: 6.00 Build 0)  -->
<svg version="1.0" id="图层_1" xmlns="http://www.w3.org/2000/svg" xmlns:xlink="http://www.w3.org/1999/xlink" x="0px" y="0px"
	 viewBox="0 0 207 40" style="enable-background:new 0 0 207 40;" xml:space="preserve">
<style type="text/css">
	.st0{fill:url(#SVGID_1_);}
	.st1{fill:url(#SVGID_2_);}
	.st2{fill:url(#SVGID_3_);}
	.st3{fill:url(#SVGID_4_);}
	.st4{fill:url(#SVGID_5_);}
	.st5{fill:url(#SVGID_6_);}
	.st6{fill:url(#SVGID_7_);}
	.st7{fill:url(#SVGID_8_);}
	.st8{fill:url(#SVGID_9_);}
	.st9{fill:#231815;}
</style>
<g>
	<g>
		<g>
			<radialGradient id="SVGID_1_" cx="20.4524" cy="2.0954" r="36.4256" gradientUnits="userSpaceOnUse">
				<stop  offset="0.2456" style="stop-color:#EDD900"/>
				<stop  offset="1" style="stop-color:#F29600"/>
			</radialGradient>
			<path class="st0" d="M8.79,14.12c0.75-3.6,2.77-6.74,5.57-8.92c-1.61-0.84-3.35-1.42-5.15-1.72c-3.92,2.59-6.87,6.53-8.16,11.16
				C3.56,13.91,6.21,13.73,8.79,14.12z"/>
			<radialGradient id="SVGID_2_" cx="20.4524" cy="2.0954" r="36.4256" gradientUnits="userSpaceOnUse">
				<stop  offset="0.2456" style="stop-color:#EDD900"/>
				<stop  offset="1" style="stop-color:#F29600"/>
			</radialGradient>
			<path class="st1" d="M11.3,26.04c-1.78-2.49-2.82-5.53-2.82-8.82c0-0.88,0.08-1.74,0.22-2.58c-2.61-0.39-5.29-0.18-7.81,0.61
				C0.52,16.77,0.31,18.36,0.31,20c0,4.15,1.28,7.99,3.46,11.17C5.77,28.86,8.36,27.08,11.3,26.04z"/>
			<radialGradient id="SVGID_3_" cx="20.4524" cy="2.0954" r="36.4256" gradientUnits="userSpaceOnUse">
				<stop  offset="0.2456" style="stop-color:#EDD900"/>
				<stop  offset="1" style="stop-color:#F29600"/>
			</radialGradient>
			<path class="st2" d="M21.84,32.31c-4.15-0.5-7.79-2.67-10.21-5.83c-2.96,1.01-5.55,2.81-7.54,5.13c3.58,4.92,9.36,8.12,15.9,8.15
				C21.15,37.45,21.79,34.9,21.84,32.31z"/>
			<g>
				<radialGradient id="SVGID_4_" cx="20.4524" cy="2.0954" r="36.4256" gradientUnits="userSpaceOnUse">
					<stop  offset="0.2456" style="stop-color:#EDD900"/>
					<stop  offset="1" style="stop-color:#F29600"/>
				</radialGradient>
				<path class="st3" d="M34.65,33.36c-0.04-1.64-0.31-3.27-0.81-4.83c-2.69,2.42-6.25,3.89-10.16,3.89c-0.44,0-0.88-0.02-1.32-0.06
					c-0.06,2.56-0.67,5.09-1.8,7.4C26.14,39.62,31.14,37.18,34.65,33.36z"/>
				<g>
					<radialGradient id="SVGID_5_" cx="20.4524" cy="2.0954" r="36.4256" gradientUnits="userSpaceOnUse">
						<stop  offset="0.2456" style="stop-color:#EDD900"/>
						<stop  offset="1" style="stop-color:#F29600"/>
					</radialGradient>
					<path class="st4" d="M9.87,3.08c1.73,0.35,3.41,0.94,4.96,1.78c2.49-1.79,5.55-2.84,8.85-2.84c3.96,0,7.52,1.44,10.19,3.83
						c-3.56-3.47-8.43-5.61-13.79-5.61C16.34,0.24,12.85,1.27,9.87,3.08z"/>
					<radialGradient id="SVGID_6_" cx="20.4524" cy="2.0954" r="36.4256" gradientUnits="userSpaceOnUse">
						<stop  offset="0.2456" style="stop-color:#EDD900"/>
						<stop  offset="1" style="stop-color:#F29600"/>
					</radialGradient>
					<path class="st5" d="M37,9.78c1.2,2.19,1.88,4.71,1.88,7.43c0,4.28-1.77,8.15-4.62,10.91c0.5,1.51,0.8,3.08,0.89,4.66
						c2.93-3.45,4.69-7.91,4.69-12.79C39.84,16.26,38.81,12.77,37,9.78z"/>
				</g>
			</g>
		</g>
		<linearGradient id="SVGID_7_" gradientUnits="userSpaceOnUse" x1="35.4206" y1="13.3997" x2="19.1528" y2="22.5832">
			<stop  offset="0.098" style="stop-color:#54C2F0"/>
			<stop  offset="1" style="stop-color:#0075C1"/>
		</linearGradient>
		<path class="st6" d="M36.22,18.05C36.62,9.41,29.4,6,29.4,6c2.49,2.17,5.4,5.61,4.67,11.24c-0.29,2.26-2.1,4.34-3.74,5.15
			c-3.47,1.72-7.27-0.72-6.67-4c0.27-1.47,1.86-2.19,2.4-2.24c-1.52-1.06-4.03-0.69-5.44,0.39c-1.65,1.27-2.05,3.14-2.05,4.69
			c0,1.99,1.4,4.02,2.89,5.03C27.42,30.26,35.84,26.25,36.22,18.05z"/>
		<linearGradient id="SVGID_8_" gradientUnits="userSpaceOnUse" x1="17.5496" y1="26.8998" x2="27.2579" y2="14.3054">
			<stop  offset="0.098" style="stop-color:#54C2F0"/>
			<stop  offset="1" style="stop-color:#0075C1"/>
		</linearGradient>
		<path class="st7" d="M21.81,28.16c-1.79-0.8-4-1.99-4.94-5.34c-1.1-3.95,1.3-6.91,2.93-7.96c1.59-1.02,3.12-1.19,4.39-1.16
			c2.35,0.06,4.65,1.71,5.53,3.15c0.08-1-0.96-5.2-5.59-6.06c-2.73-0.51-5.33,0.27-7,1.58c-2.02,1.58-3.13,3.93-3.27,6.6
			c-0.17,3.36,1.14,7.18,4.38,9.28c2.87,1.86,6.63,1.95,9.61,0.79C25.15,29.28,23.07,28.73,21.81,28.16z"/>
		<linearGradient id="SVGID_9_" gradientUnits="userSpaceOnUse" x1="11.1512" y1="14.0109" x2="32.5305" y2="14.0109">
			<stop  offset="0.098" style="stop-color:#54C2F0"/>
			<stop  offset="1" style="stop-color:#0075C1"/>
		</linearGradient>
		<path class="st8" d="M32.45,14.07c-0.48-3.97-3.47-7.96-7.3-8.77c-3.34-0.71-7.37,0.15-10.13,2.79
			c-4.11,3.93-4.93,10.16-2.54,14.87c-0.74-3.59-0.71-5.87,0.29-8.31c1.65-4,5.83-6.3,10.56-5.85c4.7,0.45,7.69,4.39,7.46,8.71
			c-0.07,1.33-0.33,2.14-0.64,2.78C32.14,18.74,32.77,16.68,32.45,14.07z"/>
	</g>
	<g>
		<g>
			<path class="st9" d="M70.38,9.18c-0.05-0.25-0.26-0.43-0.51-0.47c-0.25-0.03-0.5,0.1-0.61,0.32l-6.92,13.4l-6.7-13.39
				c-0.11-0.23-0.35-0.36-0.61-0.33c-0.25,0.03-0.46,0.21-0.52,0.46l-4.77,19.99c-0.04,0.18,0,0.37,0.11,0.51
				c0.11,0.14,0.29,0.23,0.47,0.23h2.9c0.28,0,0.52-0.19,0.58-0.45l2.46-9.69l5.47,10.67c0.1,0.2,0.31,0.33,0.53,0.33h0
				c0.22,0,0.43-0.12,0.53-0.32l5.61-10.65l2.28,9.66c0.06,0.27,0.31,0.46,0.59,0.46h2.88c0.18,0,0.35-0.08,0.47-0.22
				c0.11-0.14,0.16-0.33,0.12-0.51L70.38,9.18z"/>
			<path class="st9" d="M147.53,10.1c-0.33,0-0.6,0.27-0.6,0.6v2.64c0,0.33,0.27,0.6,0.6,0.6H153V29.3c0,0.33,0.27,0.6,0.6,0.6h2.81
				c0.33,0,0.6-0.27,0.6-0.6V13.94h5.22c0.33,0,0.48-0.24,0.6-0.6l1.2-2.64c0-0.33-0.27-0.6-0.6-0.6H147.53z"/>
			<path class="st9" d="M175.15,9.75c-2.83,0-5.29,1.01-7.31,2.99c-2.03,1.99-3.06,4.4-3.06,7.17c0,3.15,1.13,5.73,3.36,7.68
				c2.01,1.75,4.32,2.64,6.86,2.64c2.86,0,5.34-1,7.37-2.98c2.02-1.97,3.05-4.41,3.05-7.23c0-2.81-1.02-5.25-3.03-7.25
				C180.38,10.77,177.95,9.75,175.15,9.75z M175.04,26.41c-1.65,0-3.07-0.59-4.34-1.82c-1.27-1.22-1.89-2.73-1.89-4.64
				c0-1.81,0.6-3.29,1.83-4.51c1.23-1.24,2.69-1.84,4.47-1.84c1.79,0,3.25,0.6,4.46,1.84c1.22,1.23,1.81,2.73,1.81,4.56
				c0,1.81-0.6,3.3-1.84,4.56C178.31,25.8,176.84,26.41,175.04,26.41z"/>
			<path class="st9" d="M88.16,9.75c-2.83,0-5.29,1.01-7.31,2.99c-2.03,1.99-3.06,4.4-3.06,7.17c0,3.15,1.13,5.73,3.36,7.68
				c2.01,1.75,4.32,2.64,6.86,2.64c2.86,0,5.34-1,7.37-2.98c2.02-1.97,3.05-4.41,3.05-7.23c0-2.81-1.02-5.25-3.03-7.25
				C93.39,10.77,90.96,9.75,88.16,9.75z M88.05,26.41c-1.65,0-3.07-0.59-4.34-1.82c-1.27-1.22-1.89-2.73-1.89-4.64
				c0-1.81,0.6-3.29,1.83-4.51c1.23-1.24,2.69-1.84,4.47-1.84c1.79,0,3.25,0.6,4.46,1.84c1.22,1.23,1.81,2.73,1.81,4.56
				c0,1.81-0.6,3.3-1.84,4.56C91.32,25.8,89.85,26.41,88.05,26.41z"/>
			<path class="st9" d="M112.22,9.75c-2.83,0-5.29,1.01-7.31,2.99c-2.03,1.99-3.06,4.4-3.06,7.17c0,3.15,1.13,5.73,3.36,7.68
				c2.01,1.75,4.32,2.64,6.86,2.64c2.86,0,5.34-1,7.37-2.98c2.02-1.97,3.05-4.41,3.05-7.23c0-2.81-1.02-5.25-3.03-7.25
				C117.45,10.77,115.02,9.75,112.22,9.75z M112.11,26.41c-1.65,0-3.07-0.59-4.34-1.82c-1.27-1.22-1.89-2.73-1.89-4.64
				c0-1.81,0.6-3.29,1.83-4.51c1.23-1.24,2.69-1.84,4.47-1.84c1.79,0,3.25,0.6,4.46,1.84c1.22,1.23,1.81,2.73,1.81,4.56
				c0,1.81-0.6,3.3-1.84,4.56C115.38,25.8,113.91,26.41,112.11,26.41z"/>
			<path class="st9" d="M126.45,12.54V29.3c0,0.33,0.27,0.6,0.6,0.6h2.81c0.33,0,0.6-0.27,0.6-0.6V17.78l12.52,12.71
				c0.12,0.12,0.27,0.19,0.43,0.19c0.08,0,0.15-0.01,0.22-0.04c0.23-0.09,0.38-0.31,0.38-0.56V10.7c0-0.33-0.27-0.6-0.6-0.6h-2.81
				c-0.33,0-0.6,0.27-0.6,0.6v11.06l-10.9-11.04c-0.23-0.23-0.62-0.23-0.85,0L126.45,12.54"/>
			<path class="st9" d="M189.12,12.54V29.3c0,0.33,0.27,0.6,0.6,0.6h2.81c0.33,0,0.6-0.27,0.6-0.6V17.78l12.52,12.71
				c0.12,0.12,0.27,0.19,0.43,0.19c0.08,0,0.15-0.01,0.22-0.04c0.23-0.09,0.38-0.31,0.38-0.56V10.7c0-0.33-0.27-0.6-0.6-0.6h-2.81
				c-0.33,0-0.6,0.27-0.6,0.6v11.06l-10.9-11.04c-0.23-0.23-0.62-0.23-0.85,0L189.12,12.54"/>
		</g>
	</g>
</g>
</svg>
